<mxfile host="app.diagrams.net" modified="2023-05-26T02:38:16.048Z" agent="Mozilla/5.0 (Windows NT 10.0; Win64; x64) AppleWebKit/537.36 (KHTML, like Gecko) Chrome/112.0.0.0 Safari/537.36" etag="zRSQhGqXZ0swUcSuFE2g" version="21.3.2" type="github">
  <diagram name="第 1 页" id="UyhxKDZ9zvRZfNR0HZjZ">
    <mxGraphModel dx="1195" dy="663" grid="1" gridSize="10" guides="1" tooltips="1" connect="1" arrows="1" fold="1" page="1" pageScale="1" pageWidth="827" pageHeight="1169" math="0" shadow="0">
      <root>
        <mxCell id="0" />
        <mxCell id="1" parent="0" />
        <mxCell id="W2azDIEuIdSydA81i-fa-2" value="" style="shape=internalStorage;whiteSpace=wrap;html=1;backgroundOutline=1;dx=60;dy=60;fillColor=#f5f5f5;strokeColor=#666666;fontColor=#333333;" vertex="1" parent="1">
          <mxGeometry x="90" y="200" width="980" height="450" as="geometry" />
        </mxCell>
        <mxCell id="W2azDIEuIdSydA81i-fa-3" value="" style="endArrow=none;html=1;rounded=0;entryX=0.5;entryY=0;entryDx=0;entryDy=0;exitX=0.5;exitY=1;exitDx=0;exitDy=0;" edge="1" parent="1" source="W2azDIEuIdSydA81i-fa-2" target="W2azDIEuIdSydA81i-fa-2">
          <mxGeometry width="50" height="50" relative="1" as="geometry">
            <mxPoint x="390" y="430" as="sourcePoint" />
            <mxPoint x="440" y="380" as="targetPoint" />
          </mxGeometry>
        </mxCell>
        <mxCell id="W2azDIEuIdSydA81i-fa-13" value="并入" style="edgeStyle=orthogonalEdgeStyle;rounded=0;orthogonalLoop=1;jettySize=auto;html=1;exitX=0.5;exitY=1;exitDx=0;exitDy=0;fillColor=#dae8fc;strokeColor=#6c8ebf;" edge="1" parent="1" source="W2azDIEuIdSydA81i-fa-4" target="W2azDIEuIdSydA81i-fa-12">
          <mxGeometry relative="1" as="geometry" />
        </mxCell>
        <mxCell id="W2azDIEuIdSydA81i-fa-4" value="·录入请假记录" style="rounded=1;whiteSpace=wrap;html=1;fillColor=#dae8fc;strokeColor=#6c8ebf;" vertex="1" parent="1">
          <mxGeometry x="260" y="310" width="100" height="50" as="geometry" />
        </mxCell>
        <mxCell id="W2azDIEuIdSydA81i-fa-8" style="edgeStyle=orthogonalEdgeStyle;rounded=0;orthogonalLoop=1;jettySize=auto;html=1;exitX=0.5;exitY=1;exitDx=0;exitDy=0;fillColor=#f8cecc;strokeColor=#b85450;" edge="1" parent="1" source="W2azDIEuIdSydA81i-fa-5" target="W2azDIEuIdSydA81i-fa-6">
          <mxGeometry relative="1" as="geometry" />
        </mxCell>
        <mxCell id="W2azDIEuIdSydA81i-fa-5" value="金蝶排班" style="rounded=1;whiteSpace=wrap;html=1;fillColor=#f8cecc;strokeColor=#b85450;" vertex="1" parent="1">
          <mxGeometry x="640" y="310" width="100" height="50" as="geometry" />
        </mxCell>
        <mxCell id="W2azDIEuIdSydA81i-fa-14" value="通过EXCEL批量导入" style="edgeStyle=orthogonalEdgeStyle;rounded=0;orthogonalLoop=1;jettySize=auto;html=1;exitX=0;exitY=0.5;exitDx=0;exitDy=0;entryX=1;entryY=0.5;entryDx=0;entryDy=0;" edge="1" parent="1" source="W2azDIEuIdSydA81i-fa-6" target="W2azDIEuIdSydA81i-fa-12">
          <mxGeometry x="-0.2432" relative="1" as="geometry">
            <mxPoint as="offset" />
          </mxGeometry>
        </mxCell>
        <mxCell id="W2azDIEuIdSydA81i-fa-6" value="人员实际出勤天数、迟到、早退次数" style="rounded=1;whiteSpace=wrap;html=1;fillColor=#f8cecc;strokeColor=#b85450;" vertex="1" parent="1">
          <mxGeometry x="730" y="423" width="200" height="50" as="geometry" />
        </mxCell>
        <mxCell id="W2azDIEuIdSydA81i-fa-9" style="edgeStyle=orthogonalEdgeStyle;rounded=0;orthogonalLoop=1;jettySize=auto;html=1;exitX=0.5;exitY=1;exitDx=0;exitDy=0;entryX=0.5;entryY=0;entryDx=0;entryDy=0;fillColor=#f8cecc;strokeColor=#b85450;" edge="1" parent="1" source="W2azDIEuIdSydA81i-fa-7" target="W2azDIEuIdSydA81i-fa-6">
          <mxGeometry relative="1" as="geometry">
            <mxPoint x="830" y="410" as="targetPoint" />
          </mxGeometry>
        </mxCell>
        <mxCell id="W2azDIEuIdSydA81i-fa-7" value="金蝶补卡" style="rounded=1;whiteSpace=wrap;html=1;fillColor=#f8cecc;strokeColor=#b85450;" vertex="1" parent="1">
          <mxGeometry x="910" y="310" width="100" height="50" as="geometry" />
        </mxCell>
        <mxCell id="W2azDIEuIdSydA81i-fa-11" style="edgeStyle=orthogonalEdgeStyle;rounded=0;orthogonalLoop=1;jettySize=auto;html=1;exitX=0.5;exitY=1;exitDx=0;exitDy=0;entryX=0.5;entryY=0;entryDx=0;entryDy=0;fillColor=#f8cecc;strokeColor=#b85450;" edge="1" parent="1" source="W2azDIEuIdSydA81i-fa-10" target="W2azDIEuIdSydA81i-fa-6">
          <mxGeometry relative="1" as="geometry" />
        </mxCell>
        <mxCell id="W2azDIEuIdSydA81i-fa-10" value="调休、请假" style="rounded=1;whiteSpace=wrap;html=1;fillColor=#f8cecc;strokeColor=#b85450;" vertex="1" parent="1">
          <mxGeometry x="780" y="310" width="100" height="50" as="geometry" />
        </mxCell>
        <mxCell id="W2azDIEuIdSydA81i-fa-16" value="提交" style="edgeStyle=orthogonalEdgeStyle;rounded=0;orthogonalLoop=1;jettySize=auto;html=1;exitX=0.5;exitY=1;exitDx=0;exitDy=0;entryX=0.5;entryY=0;entryDx=0;entryDy=0;fillColor=#dae8fc;strokeColor=#6c8ebf;" edge="1" parent="1" source="W2azDIEuIdSydA81i-fa-12" target="W2azDIEuIdSydA81i-fa-15">
          <mxGeometry relative="1" as="geometry" />
        </mxCell>
        <mxCell id="W2azDIEuIdSydA81i-fa-12" value="混合月薪考勤记录" style="rounded=1;whiteSpace=wrap;html=1;fillColor=#dae8fc;strokeColor=#6c8ebf;" vertex="1" parent="1">
          <mxGeometry x="260" y="423" width="100" height="50" as="geometry" />
        </mxCell>
        <mxCell id="W2azDIEuIdSydA81i-fa-15" value="混合月薪考勤部长审核" style="rounded=1;whiteSpace=wrap;html=1;fillColor=#dae8fc;strokeColor=#6c8ebf;" vertex="1" parent="1">
          <mxGeometry x="260" y="535" width="100" height="50" as="geometry" />
        </mxCell>
        <mxCell id="W2azDIEuIdSydA81i-fa-17" value="系统操作" style="text;html=1;strokeColor=none;fillColor=none;align=center;verticalAlign=middle;whiteSpace=wrap;rounded=0;" vertex="1" parent="1">
          <mxGeometry x="91" y="420" width="60" height="30" as="geometry" />
        </mxCell>
        <mxCell id="W2azDIEuIdSydA81i-fa-18" value="工资管理系统" style="text;html=1;strokeColor=none;fillColor=none;align=center;verticalAlign=middle;whiteSpace=wrap;rounded=0;fontSize=15;" vertex="1" parent="1">
          <mxGeometry x="294" y="220" width="120" height="30" as="geometry" />
        </mxCell>
        <mxCell id="W2azDIEuIdSydA81i-fa-19" value="金蝶考勤系统" style="text;html=1;strokeColor=none;fillColor=none;align=center;verticalAlign=middle;whiteSpace=wrap;rounded=0;fontSize=15;" vertex="1" parent="1">
          <mxGeometry x="760" y="220" width="120" height="30" as="geometry" />
        </mxCell>
        <mxCell id="W2azDIEuIdSydA81i-fa-22" value="请假天数已在金蝶系统扣除，得出为实际出勤天数" style="shape=document;whiteSpace=wrap;html=1;boundedLbl=1;fillColor=#f8cecc;strokeColor=#b85450;" vertex="1" parent="1">
          <mxGeometry x="600" y="530" width="120" height="80" as="geometry" />
        </mxCell>
      </root>
    </mxGraphModel>
  </diagram>
</mxfile>
